# xmcd
#
# Track frame offsets: 
#        150
#        24202
#        49043
#        71466
#        93904
#        114438
#        128890
#        155103
#        180104
#        204190
#        233807
#
# Disc length: 3440 seconds
#
# Revision: 1
# Processed by: cddbd v1.5.2PL0 Copyright (c) Steve Scherf et al.
# Submitted via: ExactAudioCopy v0.99pb5
#
DISCID=7f0d6e0b
DTITLE=Eddie Kirkland - Movin' On
DYEAR=1999
DGENRE=Blues
TTITLE0=Love Me
TTITLE1=Rainbow
TTITLE2=Honey Bee
TTITLE3=Sandman
TTITLE4=Movin' On
TTITLE5=Foggy Monday
TTITLE6=Got To Find Me 'Nother Woman
TTITLE7=Don't Monkey Around With Me
TTITLE8=Why Can't I Be Free
TTITLE9=Swanee River
TTITLE10=American Woman
EXTD=YEAR: 1999 ID3G: 0
EXTT0=
EXTT1=
EXTT2=
EXTT3=
EXTT4=
EXTT5=
EXTT6=
EXTT7=
EXTT8=
EXTT9=
EXTT10=
PLAYORDER=
